#N canvas 0 22 1242 743 10;
#X obj 20 229 analogInput0~;
#X obj 311 311 loadbang;
#X msg 131 328 0.1;
#X obj 20 578 echoB~;
#X obj 20 628 flangerB~;
#X obj 20 679 reverbB~;
#N canvas 0 22 450 278 (subpatch) 0;
#X array vocalAudioFile 85248 float 2;
#X coords 0 1 85248 -1 200 140 1 0 0;
#X restore 22 66 graph;
#X obj 20 469 +~;
#X obj 1055 690 audioOnOff;
#X obj 1055 666 tgl 15 0 empty empty empty 17 7 0 10 -262144 -1 -1
1 1;
#X obj 1055 641 loadbang;
#X obj 20 530 filterB~;
#X obj 198 497 analogInput3~;
#X obj 197 543 analogInput4~;
#X obj 197 591 analogInput5~;
#X obj 197 642 analogInput6~;
#X obj 20 416 playAudioFile~;
#X text 24 12 PLAYING AUDIO FILE AND CONTROL AUDIO EFFECTS BASED ON
ANALOG SENSORS, f 68;
#X obj 20 363 setSensorThreshold~;
#X obj 20 718 output~;
#X msg 262 399 voclaHit0.wav;
#X msg 124 399 vocalAudioFile;
#X obj 292 530 scope0~;
#X obj 292 578 scope1~;
#X obj 292 628 scope2~;
#X obj 292 679 scope3~;
#X connect 0 0 18 0;
#X connect 1 0 2 0;
#X connect 1 0 21 0;
#X connect 1 0 20 0;
#X connect 2 0 18 1;
#X connect 3 0 4 0;
#X connect 4 0 5 0;
#X connect 5 0 19 0;
#X connect 7 0 11 0;
#X connect 9 0 8 0;
#X connect 10 0 9 0;
#X connect 11 0 3 0;
#X connect 12 0 11 1;
#X connect 12 0 22 0;
#X connect 13 0 3 1;
#X connect 13 0 23 0;
#X connect 14 0 4 1;
#X connect 14 0 24 0;
#X connect 15 0 5 1;
#X connect 15 0 25 0;
#X connect 16 0 7 0;
#X connect 18 0 16 0;
#X connect 18 1 16 1;
#X connect 20 0 16 3;
#X connect 21 0 16 2;
